<svg xmlns="http://www.w3.org/2000/svg" width="500" height="500" viewBox="0 0 500 500" version="1.1"><path d="M 244.075 151.192 C 221.723 162.256, 170.005 245.479, 148.803 304.500 C 141.204 325.655, 138.925 341.545, 142.704 347.027 C 149.107 356.318, 168.214 362.001, 207 366.151 C 222.219 367.780, 275.993 367.804, 292 366.190 C 320.564 363.310, 342.705 358.175, 351.693 352.346 C 358.099 348.192, 359.411 344.938, 358.733 334.894 C 355.831 291.947, 284.846 165.206, 255.826 151.158 C 250.293 148.479, 249.551 148.481, 244.075 151.192 M 244.911 213.673 C 227.574 227.257, 195 287.862, 195 306.533 C 195 310.012, 195.514 311.259, 197.638 312.930 C 204.315 318.182, 223.115 321.178, 249.500 321.193 C 270.548 321.206, 282.165 320.063, 293.120 316.903 C 302.428 314.217, 305 311.972, 305 306.533 C 305 284.628, 262.611 211, 250 211 C 249.077 211, 246.787 212.203, 244.911 213.673" stroke="none" fill="#fbfbfb" fill-rule="evenodd"/><path d="M 240.500 85.904 C 198.016 110.419, 106.815 266.029, 86.402 348.830 C 83.330 361.290, 82.868 364.666, 83.160 372.507 C 83.454 380.413, 83.861 382.198, 86.164 385.675 C 98.749 404.676, 162.941 417, 249.329 417 C 328.330 416.999, 390.563 406.701, 409.901 390.430 C 415.244 385.934, 417 381.260, 417 371.532 C 417 328.676, 356.716 202.671, 300.630 128.300 C 278.096 98.418, 260.877 83.019, 250 83.019 C 246.862 83.019, 243.987 83.892, 240.500 85.904 M 244.075 151.192 C 221.723 162.256, 170.005 245.479, 148.803 304.500 C 141.204 325.655, 138.925 341.545, 142.704 347.027 C 149.107 356.318, 168.214 362.001, 207 366.151 C 222.219 367.780, 275.993 367.804, 292 366.190 C 320.564 363.310, 342.705 358.175, 351.693 352.346 C 358.099 348.192, 359.411 344.938, 358.733 334.894 C 355.831 291.947, 284.846 165.206, 255.826 151.158 C 250.293 148.479, 249.551 148.481, 244.075 151.192 M 244.911 213.673 C 227.574 227.257, 195 287.862, 195 306.533 C 195 310.012, 195.514 311.259, 197.638 312.930 C 204.315 318.182, 223.115 321.178, 249.500 321.193 C 270.548 321.206, 282.165 320.063, 293.120 316.903 C 302.428 314.217, 305 311.972, 305 306.533 C 305 284.628, 262.611 211, 250 211 C 249.077 211, 246.787 212.203, 244.911 213.673" stroke="none" fill="#7e70c9" fill-rule="evenodd"/></svg>