<svg width="500" height="500" version="1.1" xmlns="http://www.w3.org/2000/svg" desc="Created with imagetracer.js version 1.2.6" ><path fill="rgb(237,229,248)" stroke="rgb(237,229,248)" stroke-width="1" opacity="0.9803921568627451" d="M 228.5 0 L 272.5 0 L 273.5 1 L 294.5 3 L 316.5 8 Q 364.5 21.5 399 48.5 L 377.5 71 Q 374.3 62.2 367.5 57 L 337.5 41 L 295.5 26 L 259.5 17 L 254.5 17 L 235.5 13 L 226.5 13 Q 225.3 15.3 220.5 14 L 211.5 18 L 191 37.5 Q 165.4 68.4 136.5 96 L 131.5 99 L 122.5 101 L 49.5 101 L 51 98.5 Q 62.2 82.2 76.5 69 Q 106.7 39.7 147.5 21 L 183.5 8 L 205.5 3 L 217.5 2 L 218.5 1 L 227.5 1 L 228.5 0 Z " /><path fill="rgb(84,59,145)" stroke="rgb(84,59,145)" stroke-width="1" opacity="0.9019607843137255" d="M 48.5 101 L 49 102.5 L 35.5 122 L 36 120.5 L 48.5 101 Z " /><path fill="rgb(84,59,145)" stroke="rgb(84,59,145)" stroke-width="1" opacity="0.9019607843137255" d="M 34.5 123 L 34 124.5 L 22.5 147 L 22 145.5 L 34.5 123 Z " /><path fill="rgb(84,59,145)" stroke="rgb(84,59,145)" stroke-width="1" opacity="0.9019607843137255" d="M 21.5 148 L 22 149.5 L 15.5 164 L 15 162.5 L 21.5 148 Z " /><path fill="rgb(84,59,145)" stroke="rgb(84,59,145)" stroke-width="1" opacity="0.9019607843137255" d="M 14.5 165 L 15 166.5 L 6 195.5 L 2 218.5 L 2 227.5 L 1 228.5 L 1 271.5 L 2 272.5 L 2 281.5 L 3 282.5 L 4 294.5 L 11 322.5 L 10 322.5 L 5 304.5 L 1 281.5 L 1 272.5 L 0 271.5 L 0 228.5 L 1 227.5 L 1 218.5 L 5 195.5 L 14.5 165 Z " /><path fill="rgb(84,59,145)" stroke="rgb(84,59,145)" stroke-width="1" opacity="0.9019607843137255" d="M 11.5 324 L 15 334.5 L 14 334.5 L 11 326.5 L 11.5 324 Z " /><path fill="rgb(84,59,145)" stroke="rgb(84,59,145)" stroke-width="1" opacity="0.9019607843137255" d="M 15.5 336 Q 25.3 365.2 42 387.5 L 39 385.5 L 20 350.5 L 15.5 336 Z " /><path fill="rgb(84,59,145)" stroke="rgb(84,59,145)" stroke-width="1" opacity="0.9019607843137255" d="M 42.5 389 L 49 398.5 L 48 398.5 L 42.5 389 Z " /><path fill="rgb(85,62,152)" stroke="rgb(85,62,152)" stroke-width="1" opacity="1" d="M 223.5 14 L 232.5 15 L 237.5 14 L 237.5 16 L 243.5 15 L 243.5 17 L 249.5 16 L 249.5 18 L 256.5 17 L 256.5 19 L 261.5 18 L 261.5 20 L 266.5 19 L 266.5 21 L 271 20 Q 269.9 22.7 272.5 22 L 275.5 21 L 275.5 23 L 279 22 Q 277.9 24.7 280.5 24 L 283 23 Q 281.9 25.7 284.5 25 L 286.5 24 L 286.5 26 L 290 25 Q 288.9 27.7 291.5 27 L 293.5 26 L 293.5 28 L 296.5 27 L 296.5 29 L 300 28 Q 298.9 30.7 301.5 30 L 303 29.5 Q 302.3 31.8 304.5 31 L 306.5 30 L 306.5 32 L 309.5 31 L 309.5 33 L 312.5 32 L 312.5 34 L 314.5 33 L 315 35 L 318.5 34 L 318.5 36 L 320.5 35 L 321.5 37 L 323.5 36 L 323.5 38 L 326.5 37 L 326.5 39 L 328.5 38 L 328.5 40 L 330.5 39 L 331 41 L 333.5 40 L 333.5 42 L 335.5 41 L 336.5 43 L 338 42.5 L 338.5 44 L 340.5 43 L 340.5 45 L 342.5 44 L 342.5 46 L 344.5 45 L 345.5 47 L 347 46.5 L 347.5 48 L 349 47.5 L 349.5 49 L 351 48.5 L 351.5 50 L 353 49.5 L 353.5 51 L 355 50.5 L 354.5 52 L 356.5 51 L 356.5 53 L 358.5 52 L 358.5 54 L 360.5 53 L 362.5 56 L 364 55.5 L 363.5 57 L 365.5 56 L 366.5 59 L 371 62.5 L 371.5 64 L 373 63.5 L 372.5 65 L 374 65.5 L 373.5 67 L 376 68.5 L 375 70.5 L 378 71.5 L 376.5 71 L 174 273.5 L 171.5 277 Q 169.3 276.3 170 278.5 L 166 281 L 164.5 284 Q 162.3 283.3 163 285.5 L 159 288 L 156.5 292 Q 154.3 291.3 155 293.5 L 151 296 L 149.5 299 L 148 299 L 148 301 L 146 301 L 146 303 L 144 303 L 144 305 L 142 305 L 142 307 L 140 307 L 140 309 L 138 309 Q 139.1 311.7 136.5 311 L 135 314 L 133 314 L 133 316 L 131 316 L 131 318 L 129 318 L 129 320 L 127 320 L 127 322 L 125 322 L 125 324 L 123 324 Q 124.1 326.7 121.5 326 L 120 329 L 118 329 L 118 331 L 116 331 L 116 333 L 114 333 L 114 335 L 112 335 L 112 337 L 110 337 L 110 339 L 108 339 Q 109.1 341.7 106.5 341 L 105 344 L 103 344 L 103 346 Q 100.3 344.9 101 347.5 L 97 350 L 97 351.5 L 51.5 397 Q 49.3 396.3 50 398.5 L 49 398.5 Q 24.6 366.4 11 323.5 L 6 304.5 L 2 281.5 L 2 272.5 L 1 271.5 L 1 228.5 L 2 227.5 L 2 218.5 L 6 195.5 L 15 164.5 L 31 129.5 L 49 101 L 124.5 101 L 127.5 102 L 127.5 100 L 131 101 L 131.5 99 L 133 99.5 L 133.5 98 L 135 98.5 L 138.5 94 L 139.5 95 L 155 79.5 L 154 78.5 L 160.5 72 L 166 67.5 L 165 66.5 L 170.5 61 L 172 61.5 L 176 56.5 L 175 55.5 L 180.5 50 L 186 45.5 L 185 44.5 L 192.5 37 L 207 23.5 L 210.5 19 L 212 19.5 L 213.5 17 L 215.5 18 L 216.5 16 L 219 17 Q 217.9 14.3 220.5 15 L 223.5 16 L 223.5 14 Z M 276 91 L 275 92 L 262 92 L 261 93 L 258 92 L 257 94 L 256 93 L 255 95 L 254 94 L 253 96 L 242 105 L 242 107 L 241 107 L 240 110 Q 241 112 239 111 L 239 113 Q 240 115 238 114 L 238 116 Q 240 122 236 121 Q 235 125 238 124 L 237 131 L 239 131 L 238 134 L 240 134 L 239 136 L 241 136 L 240 138 L 242 138 Q 244 139 242 141 L 244 141 L 250 149 L 252 148 L 253 151 L 255 150 L 258 151 L 258 153 L 260 152 Q 262 151 261 154 L 263 153 L 274 153 L 276 154 L 276 152 L 279 153 L 279 151 L 283 150 L 285 150 L 285 149 L 292 144 Q 294 143 292 142 L 296 139 L 296 137 Q 295 134 298 135 L 297 134 L 299 128 L 299 118 L 300 117 L 298 116 L 299 113 L 297 112 L 296 109 L 296 107 L 295 106 Q 292 105 294 104 L 293 103 L 288 98 L 287 98 L 280 94 L 280 92 L 276 93 L 276 91 Z M 51 102 L 51 103 L 116 103 L 51 102 Z M 201 149 L 200 151 L 197 152 L 195 152 L 194 154 Q 193 156 192 154 L 191 156 L 187 159 Q 184 160 186 162 L 184 163 L 184 165 L 180 174 L 180 186 L 181 187 L 180 190 L 182 190 L 186 199 Q 192 207 203 209 L 204 211 L 205 210 L 218 210 L 222 208 L 224 209 L 224 208 L 226 208 L 226 207 Q 227 204 229 206 L 229 205 L 237 198 L 236 197 L 239 195 L 238 194 L 240 193 L 239 192 L 241 191 L 240 190 L 241 187 Q 239 181 243 182 L 242 181 L 243 179 Q 244 176 241 177 L 240 172 L 241 169 L 240 168 L 240 167 L 239 166 L 239 165 L 238 164 Q 235 163 237 162 L 236 161 L 229 154 L 228 154 L 217 149 L 205 149 L 204 150 L 201 149 Z " /><path fill="rgb(85,62,152)" stroke="rgb(85,62,152)" stroke-width="1" opacity="1" d="M 323.5 147 L 331 147.5 L 323.5 148 L 323.5 147 Z " /><path fill="rgb(85,62,152)" stroke="rgb(85,62,152)" stroke-width="1" opacity="1" d="M 311.5 151 L 310.5 153 L 311.5 151 Z " /><path fill="rgb(85,62,152)" stroke="rgb(85,62,152)" stroke-width="1" opacity="1" d="M 308.5 153 L 306.5 156 L 308.5 153 Z " /><path fill="rgb(85,62,152)" stroke="rgb(85,62,152)" stroke-width="1" opacity="1" d="M 346.5 154 L 351.5 160 L 346.5 154 Z " /><path fill="rgb(85,62,152)" stroke="rgb(85,62,152)" stroke-width="1" opacity="1" d="M 304.5 157 L 302.5 160 L 304.5 157 Z " /><path fill="rgb(85,62,152)" stroke="rgb(85,62,152)" stroke-width="1" opacity="1" d="M 352.5 161 L 353.5 163 L 352.5 161 Z " /><path fill="rgb(85,62,152)" stroke="rgb(85,62,152)" stroke-width="1" opacity="1" d="M 357.5 172 L 358 175.5 L 357 175.5 L 357.5 172 Z " /><path fill="rgb(85,62,152)" stroke="rgb(85,62,152)" stroke-width="1" opacity="1" d="M 357.5 181 L 358 184.5 L 357 184.5 L 357.5 181 Z " /><path fill="rgb(85,62,152)" stroke="rgb(85,62,152)" stroke-width="1" opacity="1" d="M 353.5 194 L 352.5 196 L 353.5 194 Z " /><path fill="rgb(85,62,152)" stroke="rgb(85,62,152)" stroke-width="1" opacity="1" d="M 302.5 197 L 304.5 200 L 302.5 197 Z " /><path fill="rgb(85,62,152)" stroke="rgb(85,62,152)" stroke-width="1" opacity="1" d="M 350.5 198 L 346.5 203 L 350.5 198 Z " /><path fill="rgb(85,62,152)" stroke="rgb(85,62,152)" stroke-width="1" opacity="1" d="M 306.5 201 L 307.5 203 L 306.5 201 Z " /><path fill="rgb(85,62,152)" stroke="rgb(85,62,152)" stroke-width="1" opacity="1" d="M 310.5 204 L 311.5 206 L 310.5 204 Z " /><path fill="rgb(85,62,152)" stroke="rgb(85,62,152)" stroke-width="1" opacity="1" d="M 273.5 207 L 276 207.5 L 273.5 208 L 273.5 207 Z " /><path fill="rgb(85,62,152)" stroke="rgb(85,62,152)" stroke-width="1" opacity="1" d="M 323.5 209 L 330 209.5 L 323.5 210 L 323.5 209 Z " /><path fill="rgb(85,62,152)" stroke="rgb(85,62,152)" stroke-width="1" opacity="1" d="M 287.5 213 L 291.5 218 L 287.5 213 Z " /><path fill="rgb(85,62,152)" stroke="rgb(85,62,152)" stroke-width="1" opacity="1" d="M 237.5 232 L 238 242.5 L 237 242.5 L 237.5 232 Z " /><path fill="rgb(85,62,152)" stroke="rgb(85,62,152)" stroke-width="1" opacity="1" d="M 298.5 242 L 299 244.5 L 298 244.5 L 298.5 242 Z " /><path fill="rgb(85,62,152)" stroke="rgb(85,62,152)" stroke-width="1" opacity="1" d="M 293.5 255 L 292.5 257 L 293.5 255 Z " /><path fill="rgb(85,62,152)" stroke="rgb(85,62,152)" stroke-width="1" opacity="1" d="M 243.5 256 L 245.5 259 L 243.5 256 Z " /><path fill="rgb(85,62,152)" stroke="rgb(85,62,152)" stroke-width="1" opacity="1" d="M 247.5 260 L 249.5 263 L 247.5 260 Z " /><path fill="rgb(85,62,152)" stroke="rgb(85,62,152)" stroke-width="1" opacity="1" d="M 286.5 262 L 285.5 264 L 286.5 262 Z " /><path fill="rgb(85,62,152)" stroke="rgb(85,62,152)" stroke-width="1" opacity="1" d="M 263.5 268 L 273 268.5 L 263.5 269 L 263.5 268 Z " /><path fill="rgb(85,62,152)" stroke="rgb(85,62,152)" stroke-width="1" opacity="1" d="M 466.5 328 L 467 330.5 L 466 330.5 L 466.5 328 Z " /><path fill="rgb(85,62,152)" stroke="rgb(85,62,152)" stroke-width="1" opacity="1" d="M 470.5 346 L 471 348.5 L 470 348.5 L 470.5 346 Z " /><path fill="rgb(85,62,152)" stroke="rgb(85,62,152)" stroke-width="1" opacity="1" d="M 471.5 351 L 472 354.5 L 471 354.5 L 471.5 351 Z " /><path fill="rgb(85,62,152)" stroke="rgb(85,62,152)" stroke-width="1" opacity="1" d="M 472.5 358 L 473 360.5 L 472 360.5 L 472.5 358 Z " /><path fill="rgb(85,62,152)" stroke="rgb(85,62,152)" stroke-width="1" opacity="1" d="M 188.5 399 L 204 399.5 L 188.5 400 L 188.5 399 Z " /><path fill="rgb(85,62,152)" stroke="rgb(85,62,152)" stroke-width="1" opacity="1" d="M 210.5 400 L 214 400.5 L 210.5 401 L 210.5 400 Z " /><path fill="rgb(85,62,152)" stroke="rgb(85,62,152)" stroke-width="1" opacity="1" d="M 241.5 411 L 242.5 413 L 241.5 411 Z " /><path fill="rgb(85,62,152)" stroke="rgb(85,62,152)" stroke-width="1" opacity="1" d="M 244.5 413 L 245.5 415 L 244.5 413 Z " /><path fill="rgb(85,62,152)" stroke="rgb(85,62,152)" stroke-width="1" opacity="1" d="M 248.5 416 L 249.5 418 L 248.5 416 Z " /><path fill="rgb(85,62,152)" stroke="rgb(85,62,152)" stroke-width="1" opacity="1" d="M 252.5 419 L 253.5 421 L 252.5 419 Z " /><path fill="rgb(85,62,152)" stroke="rgb(85,62,152)" stroke-width="1" opacity="1" d="M 257.5 423 L 258.5 425 L 257.5 423 Z " /><path fill="rgb(85,62,152)" stroke="rgb(85,62,152)" stroke-width="1" opacity="1" d="M 262.5 427 L 264.5 430 L 262.5 427 Z " /><path fill="rgb(85,62,152)" stroke="rgb(85,62,152)" stroke-width="1" opacity="1" d="M 268.5 432 L 270.5 435 L 268.5 432 Z " /><path fill="rgb(85,62,152)" stroke="rgb(85,62,152)" stroke-width="1" opacity="1" d="M 276.5 439 L 280.5 444 L 276.5 439 Z " /><path fill="rgb(85,62,152)" stroke="rgb(85,62,152)" stroke-width="1" opacity="1" d="M 289.5 451 L 319.5 482 L 289.5 451 Z " /><path fill="rgb(189,163,224)" stroke="rgb(189,163,224)" stroke-width="1" opacity="0.9882352941176471" d="M 227.5 13 L 234 13.5 L 227.5 14 L 227.5 13 Z " /><path fill="rgb(189,163,224)" stroke="rgb(189,163,224)" stroke-width="1" opacity="0.9882352941176471" d="M 244.5 15 L 247 15.5 L 244.5 16 L 244.5 15 Z " /><path fill="rgb(189,163,224)" stroke="rgb(189,163,224)" stroke-width="1" opacity="0.9882352941176471" d="M 250.5 16 L 253 16.5 L 250.5 17 L 250.5 16 Z " /><path fill="rgb(189,163,224)" stroke="rgb(189,163,224)" stroke-width="1" opacity="0.9882352941176471" d="M 262.5 18 L 265 18.5 L 262.5 19 L 262.5 18 Z " /><path fill="rgb(189,163,224)" stroke="rgb(189,163,224)" stroke-width="1" opacity="0.9882352941176471" d="M 206.5 22 L 193.5 36 L 206.5 22 Z " /><path fill="rgb(189,163,224)" stroke="rgb(189,163,224)" stroke-width="1" opacity="0.9882352941176471" d="M 184.5 45 L 181.5 49 L 184.5 45 Z " /><path fill="rgb(189,163,224)" stroke="rgb(189,163,224)" stroke-width="1" opacity="0.9882352941176471" d="M 399.5 49 L 419 65.5 Q 418.3 67.8 420.5 67 L 426 71 L 426 73 Q 428.7 71.9 428 74.5 L 431 76 Q 430 79 433 78 L 433 81 L 434.5 81 L 443.5 92 Q 445.8 91.3 445 93.5 L 447.5 97 Q 449.8 96.3 449 98.5 L 464 119.5 L 477 143.5 L 486 164.5 L 494 191.5 L 494 193.5 L 498 213.5 L 498 215.5 L 499 228.5 L 500 229.5 L 500 261.5 L 500 263.5 L 499 266.5 L 500 268.5 L 500 270.5 L 498 277.5 L 499 279.5 L 498 282.5 L 497 293.5 L 495 296.5 L 496 299.5 L 493 307.5 L 493 309.5 Q 493.6 314.1 491 315.5 L 491 317.5 L 488 329.5 L 486 331.5 L 486 336 Q 482.3 334.6 484 340.5 L 476 359 Q 472.7 360.3 474 355.5 L 473 355.5 L 472.5 358 L 472 354.5 L 473 349.5 L 472 349.5 L 471.5 351 L 471 349.5 Q 473.2 348.3 472 343.5 L 471 343.5 L 470.5 346 L 470 343.5 L 471 339.5 L 470 339.5 L 469.5 341 L 469 339.5 L 470 335.5 L 469 335.5 L 468.5 337 L 468 334.5 L 469 331.5 L 467 331.5 L 468 327.5 L 466 327.5 L 467 323.5 L 466 323.5 L 465.5 325 L 465 323.5 L 466 319.5 L 465 319.5 L 464.5 321 L 464 319.5 L 465 316.5 L 463 316.5 L 464 312.5 L 463 312.5 L 462.5 314 L 462 312.5 L 463 309.5 L 461 309.5 L 462 305.5 L 461 305.5 L 460.5 307 L 460 305.5 L 461 302.5 L 460 302.5 L 459.5 304 L 459 302.5 L 460 299.5 L 458 299.5 L 459 295.5 L 458 295.5 L 457.5 297 L 457 295.5 L 458 292.5 L 456 292.5 L 457 288.5 L 456 288.5 L 455.5 290 L 455 287.5 L 456 284.5 L 455 284.5 L 454.5 286 L 454 284.5 L 455 280.5 L 454 280.5 L 453.5 282 L 453 280.5 L 454 277.5 L 452 277.5 L 453 273.5 L 452 273.5 L 451.5 275 L 451 273.5 L 452 270.5 L 450 270.5 L 451 266.5 L 450 266.5 L 449.5 268 L 449 266.5 L 450 263.5 L 449 263.5 L 448.5 265 L 448 263.5 L 449 260.5 L 447 260.5 L 448 256.5 L 447 256.5 L 446.5 258 L 446 256.5 L 447 253.5 L 445 253.5 L 446 250.5 L 444 250.5 L 445 246.5 L 444 246.5 L 443.5 248 L 443 246.5 L 444 243.5 L 443 243.5 L 442.5 245 L 442 243.5 L 443 240.5 L 441 240.5 L 442 237.5 L 440 237.5 L 441 234.5 L 439 234.5 L 440 230.5 L 439 230.5 L 438.5 232 L 438 230.5 L 439 228.5 L 437 228.5 L 438 224.5 L 437 224.5 L 436.5 226 L 436 224.5 L 437 222.5 L 435 222.5 L 436 218.5 L 435 218.5 L 434.5 220 L 434 218.5 L 435 216.5 L 433 216.5 L 434 213.5 L 432 213.5 L 433 210.5 L 432 210.5 L 431.5 212 L 431 210.5 L 432 207.5 L 431 207.5 L 430.5 209 L 430 207.5 L 431 205.5 L 429 205.5 L 430 202.5 L 428 202.5 L 429 199.5 L 427 199.5 L 428 196.5 L 426 196.5 L 427 193.5 L 426 193.5 L 425.5 195 L 425 193.5 L 426 191.5 L 424 191.5 L 425 188.5 L 423 188.5 L 424 185.5 L 422 185.5 L 423 182.5 L 421 182.5 L 422 179.5 L 420 179.5 L 421 176.5 L 420 176.5 L 419.5 178 L 419 176.5 L 420 174.5 L 418 174.5 L 419 171.5 L 417 171.5 L 418 168.5 L 416 168.5 L 417 165.5 L 416 165.5 L 415.5 167 L 415 165.5 L 416 163.5 L 414 163.5 L 415 160.5 L 413 160.5 L 414 157.5 L 413 157.5 L 412.5 159 L 412 157.5 L 413 155.5 L 411 155.5 L 412 152.5 L 410 152.5 L 411 149.5 L 409 149.5 L 410 146.5 L 409 146.5 L 408.5 148 L 408 146.5 L 409 144.5 L 407 144.5 L 408 141.5 L 406 141.5 L 407 138.5 L 405 138.5 L 406 135.5 L 405 135.5 L 404.5 137 L 404 135.5 L 405 133.5 L 403 133.5 L 404 130.5 L 402 130.5 L 403 128.5 L 401 128.5 L 402 125.5 L 400 125.5 L 401 122.5 L 400 122.5 L 399.5 124 L 399 122.5 L 400 120.5 L 398 120.5 L 399 117.5 L 397 117.5 L 398 114.5 L 397 114.5 L 396.5 116 L 396 114.5 L 397 112.5 L 395 112.5 L 396 109.5 L 394 109.5 L 395 106.5 L 394 106.5 L 393.5 108 L 393 106.5 L 394 104.5 L 392 104.5 L 393 101.5 L 392 101.5 L 391.5 103 L 391 101.5 L 392 99.5 L 390 99.5 L 391 96.5 L 389 96.5 L 390 94.5 L 388 94.5 L 389 91.5 L 388 91.5 L 387.5 93 L 387 91.5 L 388 89.5 L 386 89.5 L 387 87.5 L 385 87.5 L 386 84.5 L 384 84.5 L 385 82.5 L 383 82.5 L 384 80.5 L 382 80.5 L 383 78.5 L 381 78.5 L 382 76.5 L 380 76.5 L 381 74.5 L 379 74.5 L 380 72.5 L 378 72.5 L 378 70.5 L 399.5 49 Z " /><path fill="rgb(189,163,224)" stroke="rgb(189,163,224)" stroke-width="1" opacity="0.9882352941176471" d="M 174.5 56 L 171.5 60 L 174.5 56 Z " /><path fill="rgb(189,163,224)" stroke="rgb(189,163,224)" stroke-width="1" opacity="0.9882352941176471" d="M 368.5 58 L 371.5 62 L 368.5 58 Z " /><path fill="rgb(189,163,224)" stroke="rgb(189,163,224)" stroke-width="1" opacity="0.9882352941176471" d="M 164.5 67 L 161.5 71 L 164.5 67 Z " /><path fill="rgb(189,163,224)" stroke="rgb(189,163,224)" stroke-width="1" opacity="0.9882352941176471" d="M 153.5 79 L 139.5 94 L 153.5 79 Z " /><path fill="rgb(189,163,224)" stroke="rgb(189,163,224)" stroke-width="1" opacity="0.9882352941176471" d="M 124.5 100 L 127 100.5 L 124.5 101 L 124.5 100 Z " /><path fill="rgb(189,163,224)" stroke="rgb(189,163,224)" stroke-width="1" opacity="0.9882352941176471" d="M 289.5 144 L 288.5 146 L 289.5 144 Z " /><path fill="rgb(189,163,224)" stroke="rgb(189,163,224)" stroke-width="1" opacity="0.9882352941176471" d="M 49.5 399 L 188 399.5 L 49.5 400 L 49.5 399 Z " /><path fill="rgb(189,163,224)" stroke="rgb(189,163,224)" stroke-width="1" opacity="0.9882352941176471" d="M 203.5 400 L 210 400.5 L 204 401.5 L 213.5 402 L 215.5 401 L 215.5 402 L 214 402.5 L 217.5 403 L 219.5 402 L 219.5 403 L 218 403.5 L 221.5 404 L 223 403.5 L 222.5 405 L 226.5 404 L 226.5 405 L 225 405.5 L 227.5 406 L 229 405.5 L 228.5 407 L 230.5 406 L 230.5 408 L 233.5 407 L 233.5 409 L 235.5 408 L 235.5 410 L 237.5 409 L 238.5 412 L 240.5 411 L 240.5 413 L 242.5 414 L 244 413.5 L 243.5 415 L 245.5 416 L 247 415.5 Q 244.8 416.8 247.5 418 L 249.5 419 Q 250.8 416.7 252 419.5 Q 249.8 420.8 252.5 422 L 254.5 421 L 257.5 426 L 259.5 425 L 262.5 430 L 264.5 431 Q 265.8 428.8 267 431.5 Q 264.3 433.3 268.5 435 L 270.5 436 L 271.5 435 L 275 438.5 L 274 439.5 L 277.5 443 L 280.5 445 L 281.5 444 L 287 449.5 L 286 450.5 L 296.5 461 L 303 466.5 Q 302.3 468.8 304.5 468 L 321.5 486 L 322.5 485 L 326 488.5 Q 324.3 486.9 322.5 490 L 303.5 495 L 301.5 495 L 294.5 497 L 292.5 497 L 282.5 499 L 278.5 499 Q 273 497.5 271.5 500 L 269.5 500 L 267.5 499 L 265.5 500 L 263.5 500 L 231.5 500 L 230.5 499 L 227.5 500 Q 225.7 497.2 219.5 499 L 215.5 497 L 212.5 498 L 207.5 496 L 205.5 497 L 196.5 494 L 194.5 494 L 167.5 487 L 127 469 Q 128.3 466 124.5 467 L 93.5 446 L 76 430.5 Q 76.8 428.3 74.5 429 L 71.5 425 L 69 423.5 L 67 420.5 L 60.5 413 Q 58.3 413.8 59 411.5 L 55.5 407 Q 53.3 407.8 54 405.5 L 51 401 L 202.5 401 L 203.5 400 Z " /><path fill="rgb(228,181,154)" stroke="rgb(228,181,154)" stroke-width="1" opacity="1" d="M 262.5 92 L 275.5 92 Q 286.6 95.4 293 103.5 L 299 116.5 L 299 118.5 L 298 131.5 L 291 144 L 278.5 152 L 263.5 153 L 260.5 152 Q 248.9 150.1 244 141.5 L 239 133.5 L 237 121.5 Q 239.5 120 238 114.5 L 242 105.5 L 250.5 97 L 257.5 93 L 262.5 92 Z " /><path fill="rgb(228,181,154)" stroke="rgb(228,181,154)" stroke-width="1" opacity="1" d="M 320.5 148 Q 332.6 146.4 339.5 150 L 352 160.5 L 357 170.5 L 358 180.5 L 354 193.5 L 344.5 204 L 332.5 209 L 321.5 209 L 314.5 207 L 305 201 L 298 189.5 L 296 182.5 L 296 174.5 L 298 167.5 L 305 156 Q 310.9 150.7 320.5 148 Z " /><path fill="rgb(228,181,154)" stroke="rgb(228,181,154)" stroke-width="1" opacity="1" d="M 204.5 149 Q 226.7 147.8 235 160.5 L 240 168.5 L 242 181.5 Q 239.4 184.4 240 190.5 Q 236.4 198.9 229.5 204 L 217.5 210 L 205.5 210 L 202.5 209 Q 192.4 206.6 187 199.5 L 181 189.5 L 180 173.5 L 186 160 Q 188.7 161.1 188 158.5 Q 194.2 151.7 204.5 149 Z " /><path fill="rgb(228,181,154)" stroke="rgb(228,181,154)" stroke-width="1" opacity="1" d="M 263.5 207 L 277.5 208 Q 288.2 211.8 294 220.5 L 299 233.5 L 299 241.5 Q 296.8 255.3 287.5 262 L 275.5 268 L 260.5 268 L 246 260 L 238 245.5 L 238 230.5 Q 241 219 249.5 213 L 263.5 207 Z " /><path fill="rgb(0,0,0)" stroke="rgb(0,0,0)" stroke-width="1" opacity="0" d="M 0 0 L 228 0.5 L 205.5 3 L 183.5 8 L 147.5 21 Q 101.6 42.1 69 76.5 Q 40.5 106 22 145.5 L 13 167.5 L 7 187.5 L 2 211.5 L 0.5 228 L 0 0 Z " /><path fill="rgb(0,0,0)" stroke="rgb(0,0,0)" stroke-width="1" opacity="0" d="M 273.5 0 L 500 0 L 500 226.5 L 499 226.5 L 499 217.5 L 495 195.5 Q 489.4 170.6 480 149.5 Q 458 101 421.5 67 Q 391.2 38.3 350.5 20 L 316.5 8 L 288.5 2 L 273.5 1 L 273.5 0 Z " /><path fill="rgb(0,0,0)" stroke="rgb(0,0,0)" stroke-width="1" opacity="0" d="M 0.5 272 L 1 281.5 L 5 304.5 L 11 326.5 L 20 350.5 Q 42 399 78.5 433 Q 108.6 461.9 149.5 480 L 186.5 493 L 210.5 498 L 226 499.5 L 0 500 L 0.5 272 Z " /><path fill="rgb(0,0,0)" stroke="rgb(0,0,0)" stroke-width="1" opacity="0" d="M 499.5 273 L 500 500 L 274 499.5 L 289.5 498 L 313.5 493 L 350.5 480 Q 397.7 458.7 431 423.5 L 433.5 420 Q 435.8 420.8 435 418.5 Q 462.6 389.6 480 350.5 L 491 320.5 L 497 294.5 L 499.5 273 Z " /><path fill="rgb(54,30,105)" stroke="rgb(54,30,105)" stroke-width="1" opacity="0.996078431372549" d="M 211.5 19 L 210.5 21 L 211.5 19 Z " /><path fill="rgb(54,30,105)" stroke="rgb(54,30,105)" stroke-width="1" opacity="0.996078431372549" d="M 204.5 25 L 199.5 31 L 204.5 25 Z " /><path fill="rgb(54,30,105)" stroke="rgb(54,30,105)" stroke-width="1" opacity="0.996078431372549" d="M 188.5 42 L 183.5 48 L 188.5 42 Z " /><path fill="rgb(54,30,105)" stroke="rgb(54,30,105)" stroke-width="1" opacity="0.996078431372549" d="M 178.5 53 L 173.5 59 L 178.5 53 Z " /><path fill="rgb(54,30,105)" stroke="rgb(54,30,105)" stroke-width="1" opacity="0.996078431372549" d="M 368.5 59 L 369.5 61 L 368.5 59 Z " /><path fill="rgb(54,30,105)" stroke="rgb(54,30,105)" stroke-width="1" opacity="0.996078431372549" d="M 371.5 63 L 372.5 65 L 371.5 63 Z " /><path fill="rgb(54,30,105)" stroke="rgb(54,30,105)" stroke-width="1" opacity="0.996078431372549" d="M 168.5 64 L 163.5 70 L 168.5 64 Z " /><path fill="rgb(54,30,105)" stroke="rgb(54,30,105)" stroke-width="1" opacity="0.996078431372549" d="M 376.5 71 L 383 82.5 L 402 130.5 L 441 240.5 L 466 327.5 L 473 365 L 471 364.5 L 471 362.5 L 470 351.5 L 464 324.5 L 435 225.5 L 392 107.5 L 376.5 73 L 54 396.5 L 191.5 397 L 192.5 398 L 209.5 398 L 219.5 400 L 237.5 407 L 258.5 422 Q 290 448 318 477.5 L 326.5 487 L 336.5 483 L 336.5 484 L 333.5 486 L 331.5 486 L 326.5 488 L 324 487 L 324 485.5 L 286.5 448 L 247.5 415 Q 234.2 404.3 214.5 400 Q 208.2 401.8 206.5 399 L 167.5 399 L 166.5 398 L 51 397.5 L 376.5 71 Z " /><path fill="rgb(54,30,105)" stroke="rgb(54,30,105)" stroke-width="1" opacity="0.996078431372549" d="M 158.5 75 L 152.5 82 L 158.5 75 Z " /><path fill="rgb(54,30,105)" stroke="rgb(54,30,105)" stroke-width="1" opacity="0.996078431372549" d="M 139.5 94 L 137.5 97 L 139.5 94 Z " /><path fill="rgb(54,30,105)" stroke="rgb(54,30,105)" stroke-width="1" opacity="0.996078431372549" d="M 320.5 146 Q 332.6 144.4 339.5 148 L 352 157.5 Q 360 165.5 360 181.5 Q 357.3 196.3 347.5 204 L 336.5 210 L 321.5 211 Q 307.9 208.1 301 198.5 Q 293.5 190.5 294 174.5 Q 297 160.5 306.5 153 L 320.5 146 Z M 323 147 L 309 153 L 299 164 L 295 178 L 296 186 L 301 197 Q 308 207 323 210 Q 338 211 346 204 Q 354 197 358 186 L 358 172 L 352 160 Q 347 153 339 149 L 332 147 L 323 147 Z " /><path fill="rgb(54,30,105)" stroke="rgb(54,30,105)" stroke-width="1" opacity="0.996078431372549" d="M 263.5 205 Q 284.4 204.6 293 216.5 Q 301.7 224.8 301 242.5 Q 297.9 256.9 287.5 264 L 278.5 269 L 267.5 271 Q 266 268.5 260.5 270 L 251.5 266 L 242 257.5 L 236 245.5 L 235 236.5 L 238 224.5 L 249.5 211 L 263.5 205 Z M 266 206 L 258 208 L 248 214 Q 240 220 237 232 L 237 245 L 243 257 Q 250 266 263 269 L 278 268 L 291 260 L 298 249 L 300 240 Q 300 226 293 219 L 282 209 L 277 207 L 266 206 Z " /><path fill="rgb(54,30,105)" stroke="rgb(54,30,105)" stroke-width="1" opacity="0.996078431372549" d="M 466.5 374 L 464.5 377 L 466.5 374 Z " /><path fill="rgb(54,30,105)" stroke="rgb(54,30,105)" stroke-width="1" opacity="0.996078431372549" d="M 463.5 378 L 465 378.5 L 463 379 L 461.5 383 L 461 381.5 L 463.5 378 Z " /><path fill="rgb(54,30,105)" stroke="rgb(54,30,105)" stroke-width="1" opacity="0.996078431372549" d="M 459.5 384 L 460 387 L 458 387 Q 459.5 390.8 456.5 390 L 456.5 392 L 454 393.5 L 453.5 395 L 453 393.5 L 459.5 384 Z " /><path fill="rgb(54,30,105)" stroke="rgb(54,30,105)" stroke-width="1" opacity="0.996078431372549" d="M 451.5 396 L 453 396.5 L 451 397 L 450.5 399 L 450 397.5 L 451.5 396 Z " /><path fill="rgb(54,30,105)" stroke="rgb(54,30,105)" stroke-width="1" opacity="0.996078431372549" d="M 444.5 405 L 442.5 408 L 444.5 405 Z " /><path fill="rgb(54,30,105)" stroke="rgb(54,30,105)" stroke-width="1" opacity="0.996078431372549" d="M 438.5 412 L 438 413.5 L 437.5 415 L 437 413.5 L 438.5 412 Z " /><path fill="rgb(54,30,105)" stroke="rgb(54,30,105)" stroke-width="1" opacity="0.996078431372549" d="M 434.5 417 L 436 417.5 L 431.5 421 L 434.5 417 Z " /><path fill="rgb(54,30,105)" stroke="rgb(54,30,105)" stroke-width="1" opacity="0.996078431372549" d="M 429.5 422 L 429 423.5 L 427.5 427 L 427 425.5 L 429.5 422 Z " /><path fill="rgb(54,30,105)" stroke="rgb(54,30,105)" stroke-width="1" opacity="0.996078431372549" d="M 424.5 427 L 424 428.5 L 421.5 432 L 418.5 434 L 416 435.5 L 423 430 L 424.5 427 Z " /><path fill="rgb(54,30,105)" stroke="rgb(54,30,105)" stroke-width="1" opacity="0.996078431372549" d="M 407.5 442 L 409 442.5 L 407 443 L 407 445 Q 404.3 443.9 405 446.5 L 404 446.5 L 407.5 442 Z " /><path fill="rgb(54,30,105)" stroke="rgb(54,30,105)" stroke-width="1" opacity="0.996078431372549" d="M 402.5 446 L 403 448 L 400 449.5 L 399.5 451 L 398 450.5 Q 398.8 452.8 396.5 452 L 398.5 449 L 402.5 446 Z " /><path fill="rgb(54,30,105)" stroke="rgb(54,30,105)" stroke-width="1" opacity="0.996078431372549" d="M 386.5 458 L 385.5 460 L 386.5 458 Z " /><path fill="rgb(54,30,105)" stroke="rgb(54,30,105)" stroke-width="1" opacity="0.996078431372549" d="M 382.5 460 L 384 460.5 L 382 461 L 380.5 464 L 380 462.5 L 382.5 460 Z " /><path fill="rgb(54,30,105)" stroke="rgb(54,30,105)" stroke-width="1" opacity="0.996078431372549" d="M 376.5 464 L 379 464.5 L 374 466 Q 375.3 469 371.5 468 L 363.5 472 L 363.5 471 L 376.5 464 Z " /><path fill="rgb(54,30,105)" stroke="rgb(54,30,105)" stroke-width="1" opacity="0.996078431372549" d="M 357.5 474 L 358.5 476 L 357.5 474 Z " /><path fill="rgb(54,30,105)" stroke="rgb(54,30,105)" stroke-width="1" opacity="0.996078431372549" d="M 350.5 477 L 352 477.5 L 349.5 479 L 350.5 477 Z " /><path fill="rgb(54,30,105)" stroke="rgb(54,30,105)" stroke-width="1" opacity="0.996078431372549" d="M 346.5 479 L 348 479.5 L 339.5 483 L 339.5 482 L 346.5 479 Z " /><path fill="rgb(55,31,105)" stroke="rgb(55,31,105)" stroke-width="1" opacity="1" d="M 229.5 14 L 233 14.5 L 229.5 15 L 229.5 14 Z " /><path fill="rgb(55,31,105)" stroke="rgb(55,31,105)" stroke-width="1" opacity="1" d="M 221.5 15 L 224 15.5 L 221.5 16 L 221.5 15 Z " /><path fill="rgb(55,31,105)" stroke="rgb(55,31,105)" stroke-width="1" opacity="1" d="M 237.5 15 L 240 15.5 L 237.5 16 L 237.5 15 Z " /><path fill="rgb(55,31,105)" stroke="rgb(55,31,105)" stroke-width="1" opacity="1" d="M 243.5 16 L 246 16.5 L 243.5 17 L 243.5 16 Z " /><path fill="rgb(55,31,105)" stroke="rgb(55,31,105)" stroke-width="1" opacity="1" d="M 249.5 17 L 252 17.5 L 249.5 18 L 249.5 17 Z " /><path fill="rgb(55,31,105)" stroke="rgb(55,31,105)" stroke-width="1" opacity="1" d="M 256.5 18 L 259 18.5 L 256.5 19 L 256.5 18 Z " /><path fill="rgb(55,31,105)" stroke="rgb(55,31,105)" stroke-width="1" opacity="1" d="M 261.5 19 L 264 19.5 L 261.5 20 L 261.5 19 Z " /><path fill="rgb(55,31,105)" stroke="rgb(55,31,105)" stroke-width="1" opacity="1" d="M 266.5 20 L 269 20.5 L 266.5 21 L 266.5 20 Z " /><path fill="rgb(55,31,105)" stroke="rgb(55,31,105)" stroke-width="1" opacity="1" d="M 209.5 21 L 208.5 23 L 209.5 21 Z " /><path fill="rgb(55,31,105)" stroke="rgb(55,31,105)" stroke-width="1" opacity="1" d="M 206.5 23 L 205.5 25 L 206.5 23 Z " /><path fill="rgb(55,31,105)" stroke="rgb(55,31,105)" stroke-width="1" opacity="1" d="M 194.5 35 L 193.5 37 L 194.5 35 Z " /><path fill="rgb(55,31,105)" stroke="rgb(55,31,105)" stroke-width="1" opacity="1" d="M 192.5 38 L 191.5 40 L 192.5 38 Z " /><path fill="rgb(55,31,105)" stroke="rgb(55,31,105)" stroke-width="1" opacity="1" d="M 327.5 38 L 328.5 40 L 327.5 38 Z " /><path fill="rgb(55,31,105)" stroke="rgb(55,31,105)" stroke-width="1" opacity="1" d="M 332.5 40 L 335 41.5 L 333.5 42 L 332.5 40 Z " /><path fill="rgb(55,31,105)" stroke="rgb(55,31,105)" stroke-width="1" opacity="1" d="M 340.5 44 L 344 45.5 L 342.5 46 L 340.5 44 Z " /><path fill="rgb(55,31,105)" stroke="rgb(55,31,105)" stroke-width="1" opacity="1" d="M 182.5 48 L 181.5 50 L 182.5 48 Z " /><path fill="rgb(55,31,105)" stroke="rgb(55,31,105)" stroke-width="1" opacity="1" d="M 180.5 51 L 179.5 53 L 180.5 51 Z " /><path fill="rgb(55,31,105)" stroke="rgb(55,31,105)" stroke-width="1" opacity="1" d="M 356.5 52 L 360 53.5 L 358.5 54 L 356.5 52 Z " /><path fill="rgb(55,31,105)" stroke="rgb(55,31,105)" stroke-width="1" opacity="1" d="M 172.5 59 L 172 60.5 L 169.5 64 L 171 61.5 L 172.5 59 Z " /><path fill="rgb(55,31,105)" stroke="rgb(55,31,105)" stroke-width="1" opacity="1" d="M 370.5 61 L 371.5 63 L 370.5 61 Z " /><path fill="rgb(55,31,105)" stroke="rgb(55,31,105)" stroke-width="1" opacity="1" d="M 162.5 70 L 161.5 72 L 162.5 70 Z " /><path fill="rgb(55,31,105)" stroke="rgb(55,31,105)" stroke-width="1" opacity="1" d="M 375.5 72 L 378 72.5 L 377 74.5 L 379 74.5 L 378 76.5 L 382.5 85 L 384 84.5 L 383 87.5 L 385.5 92 L 387 91.5 L 386 94.5 L 387.5 97 L 389 96.5 L 388 99.5 L 389.5 102 L 391 101.5 L 390 104.5 L 391.5 107 L 393 106.5 L 392 109.5 L 394 109.5 L 393 112.5 L 394.5 115 L 396 114.5 L 395 117.5 L 397.5 123 L 399 122.5 L 398 125.5 L 403.5 139 L 405 138.5 L 404 141.5 L 406.5 147 L 408 146.5 L 407 149.5 L 410.5 158 L 412 157.5 L 411 160.5 L 413.5 166 L 415 165.5 L 414 168.5 L 416 168.5 L 415 171.5 L 417.5 177 L 419 176.5 L 418 179.5 L 420 179.5 L 419 182.5 L 424.5 197 L 426 196.5 L 425 199.5 L 427 199.5 L 426 202.5 L 428.5 208 L 430 207.5 L 429 210.5 L 431 210.5 L 430 213.5 L 434.5 225 L 436 224.5 L 435 228.5 L 446.5 264 L 448 263.5 L 447 267.5 L 452.5 285 L 454 284.5 L 453 288.5 L 460.5 313 L 462 312.5 L 461 316.5 L 463.5 324 L 465 323.5 L 464 327.5 L 466 332.5 L 472 363.5 L 471.5 366 Q 469.3 365.3 470 367.5 L 470.5 369 Q 467.9 368.2 469 371.5 L 468 374 L 466 374.5 Q 468.7 376.2 464.5 378 L 463 378.5 L 464 380.5 L 463 380.5 L 462.5 379 L 461 382.5 L 461 384.5 L 460.5 386 L 459.5 384 L 458 386.5 L 459 388.5 L 458 388.5 L 457.5 387 L 456 389.5 L 456.5 391 L 455 390.5 L 456 392.5 L 453 393.5 L 454 395.5 L 451 396.5 L 451.5 398 L 450 397.5 L 451 399.5 L 441.5 411 Q 438.9 410.2 440 413.5 L 431 420.5 L 431 422.5 L 429.5 425 L 428.5 423 Q 427.6 428.6 423.5 431 L 421.5 430 L 420.5 433 Q 419.3 430.8 418 433.5 L 419 434.5 L 413.5 440 L 412 439.5 L 407.5 445 L 406.5 443 L 405.5 446 L 404 445.5 L 402.5 449 L 400.5 450 L 398.5 449 L 399 450.5 L 398.5 452 L 397.5 450 L 394.5 455 L 389.5 458 L 388.5 456 L 385.5 461 L 382.5 462 Q 381.3 459.8 380 462.5 Q 380.9 465.5 376.5 464 L 376.5 465 L 378 465.5 L 374.5 467 L 372.5 467 L 369 468.5 Q 371.3 469.8 368.5 471 L 366.5 472 L 363.5 471 L 363.5 472 L 365 472.5 L 356.5 477 L 355.5 475 L 355 478 L 342.5 483 L 342.5 481 L 339 482.5 L 341 483.5 L 334.5 486 L 334.5 484 L 332 484.5 L 333 487 L 330 486.5 L 332 485.5 L 329.5 485 L 325.5 488 L 324.5 485 L 323.5 486 L 320 482.5 L 321 481.5 L 318 478.5 L 292.5 452 L 289.5 450 Q 287.7 452.7 286 448.5 L 287 447.5 L 278.5 439 L 276.5 438 L 275 438.5 L 276 437.5 L 270.5 432 L 268.5 431 L 267 431.5 L 268 430.5 L 263.5 426 L 261.5 427 Q 263.3 424.5 258.5 422 L 256.5 423 Q 258.2 421 254.5 419 L 248.5 415 L 247 415.5 Q 249.7 413.8 245.5 412 L 239.5 409 L 238 409.5 Q 240.3 408.3 237.5 407 L 231.5 405 L 230 405.5 L 230.5 404 L 223.5 402 L 222 402.5 L 222.5 401 L 209.5 398 L 192.5 398 L 191.5 397 L 54 396.5 L 376 73.5 L 174 273.5 L 375.5 72 Z M 321 146 Q 308 149 301 159 L 302 161 L 299 162 L 300 164 L 298 164 L 299 166 L 298 165 L 294 175 L 294 183 L 297 192 L 299 192 L 298 194 L 300 194 L 299 196 Q 300 198 302 196 L 301 198 L 307 204 L 309 203 L 308 205 Q 313 210 322 211 Q 332 212 339 209 L 339 207 L 341 208 L 341 206 L 343 207 L 343 205 L 345 206 Q 347 205 345 204 L 347 204 L 352 200 L 351 198 L 353 198 L 358 190 L 360 182 L 360 176 L 358 168 Q 354 159 348 153 L 346 154 L 345 151 L 343 152 L 343 151 Q 336 144 321 146 Z M 264 205 L 253 209 L 252 212 L 250 211 Q 245 213 248 215 L 241 220 L 242 222 L 240 222 L 241 224 L 240 223 L 236 231 Q 237 235 235 237 L 237 248 L 239 247 L 238 249 L 242 258 Q 247 264 256 268 L 259 267 L 258 269 L 268 271 L 281 268 L 281 266 L 283 267 L 282 266 L 284 266 L 288 264 L 291 261 L 290 260 Q 292 261 295 257 L 294 255 L 296 255 L 298 252 L 297 249 L 299 249 L 301 243 L 301 234 L 296 221 Q 294 217 292 219 L 293 217 L 284 209 L 282 210 L 282 209 L 280 207 L 277 208 L 277 207 Q 272 204 264 205 Z M 403 446 L 401 448 L 403 448 L 403 446 Z M 344 480 L 344 481 L 346 481 L 344 480 Z " /><path fill="rgb(55,31,105)" stroke="rgb(55,31,105)" stroke-width="1" opacity="1" d="M 160.5 73 L 159.5 75 L 160.5 73 Z " /><path fill="rgb(55,31,105)" stroke="rgb(55,31,105)" stroke-width="1" opacity="1" d="M 147.5 86 L 144.5 90 L 147.5 86 Z " /><path fill="rgb(55,31,105)" stroke="rgb(55,31,105)" stroke-width="1" opacity="1" d="M 286.5 96 L 287.5 98 L 286.5 96 Z " /><path fill="rgb(55,31,105)" stroke="rgb(55,31,105)" stroke-width="1" opacity="1" d="M 246.5 99 L 245.5 101 L 246.5 99 Z " /><path fill="rgb(55,31,105)" stroke="rgb(55,31,105)" stroke-width="1" opacity="1" d="M 125.5 101 L 128 101.5 L 125.5 102 L 125.5 101 Z " /><path fill="rgb(55,31,105)" stroke="rgb(55,31,105)" stroke-width="1" opacity="1" d="M 50.5 102 L 116 102.5 L 50.5 103 L 50.5 102 Z " /><path fill="rgb(55,31,105)" stroke="rgb(55,31,105)" stroke-width="1" opacity="1" d="M 293.5 103 L 294.5 105 L 293.5 103 Z " /><path fill="rgb(55,31,105)" stroke="rgb(55,31,105)" stroke-width="1" opacity="1" d="M 236.5 121 L 237 123.5 L 236 123.5 L 236.5 121 Z " /><path fill="rgb(55,31,105)" stroke="rgb(55,31,105)" stroke-width="1" opacity="1" d="M 241.5 139 L 242.5 141 L 241.5 139 Z " /><path fill="rgb(55,31,105)" stroke="rgb(55,31,105)" stroke-width="1" opacity="1" d="M 292.5 142 L 291.5 144 L 292.5 142 Z " /><path fill="rgb(55,31,105)" stroke="rgb(55,31,105)" stroke-width="1" opacity="1" d="M 244.5 143 L 247.5 147 L 244.5 143 Z " /><path fill="rgb(55,31,105)" stroke="rgb(55,31,105)" stroke-width="1" opacity="1" d="M 250.5 148 L 251.5 150 L 250.5 148 Z " /><path fill="rgb(55,31,105)" stroke="rgb(55,31,105)" stroke-width="1" opacity="1" d="M 195.5 151 L 194.5 153 L 195.5 151 Z " /><path fill="rgb(55,31,105)" stroke="rgb(55,31,105)" stroke-width="1" opacity="1" d="M 227.5 152 L 228.5 154 L 227.5 152 Z " /><path fill="rgb(55,31,105)" stroke="rgb(55,31,105)" stroke-width="1" opacity="1" d="M 231.5 155 L 234.5 159 L 231.5 155 Z " /><path fill="rgb(55,31,105)" stroke="rgb(55,31,105)" stroke-width="1" opacity="1" d="M 186.5 159 L 184.5 162 L 186.5 159 Z " /><path fill="rgb(55,31,105)" stroke="rgb(55,31,105)" stroke-width="1" opacity="1" d="M 236.5 161 L 237.5 163 L 236.5 161 Z " /><path fill="rgb(55,31,105)" stroke="rgb(55,31,105)" stroke-width="1" opacity="1" d="M 295.5 177 L 296 179.5 L 295 179.5 L 295.5 177 Z " /><path fill="rgb(55,31,105)" stroke="rgb(55,31,105)" stroke-width="1" opacity="1" d="M 237.5 196 L 236.5 198 L 237.5 196 Z " /><path fill="rgb(55,31,105)" stroke="rgb(55,31,105)" stroke-width="1" opacity="1" d="M 235.5 199 L 234.5 201 L 235.5 199 Z " /><path fill="rgb(55,31,105)" stroke="rgb(55,31,105)" stroke-width="1" opacity="1" d="M 228.5 205 L 227.5 207 L 228.5 205 Z " /><path fill="rgb(55,31,105)" stroke="rgb(55,31,105)" stroke-width="1" opacity="1" d="M 265.5 206 L 271 206.5 L 265.5 207 L 265.5 206 Z " /><path fill="rgb(55,31,105)" stroke="rgb(55,31,105)" stroke-width="1" opacity="1" d="M 299.5 235 L 300 239.5 L 299 239.5 L 299.5 235 Z " /><path fill="rgb(55,31,105)" stroke="rgb(55,31,105)" stroke-width="1" opacity="1" d="M 136.5 311 L 135.5 313 L 136.5 311 Z " /><path fill="rgb(55,31,105)" stroke="rgb(55,31,105)" stroke-width="1" opacity="1" d="M 121.5 326 L 120.5 328 L 121.5 326 Z " /><path fill="rgb(55,31,105)" stroke="rgb(55,31,105)" stroke-width="1" opacity="1" d="M 106.5 341 L 105.5 343 L 106.5 341 Z " /><path fill="rgb(55,31,105)" stroke="rgb(55,31,105)" stroke-width="1" opacity="1" d="M 50.5 397 L 51.5 398 L 167 398.5 L 50 399 L 50.5 397 Z " /><path fill="rgb(55,31,105)" stroke="rgb(55,31,105)" stroke-width="1" opacity="1" d="M 204.5 399 L 207 399.5 L 204.5 400 L 204.5 399 Z " /><path fill="rgb(199,173,233)" stroke="rgb(199,173,233)" stroke-width="1" opacity="0.9098039215686274" d="M 421.5 67 L 424.5 71 L 421.5 67 Z " /><path fill="rgb(199,173,233)" stroke="rgb(199,173,233)" stroke-width="1" opacity="0.9098039215686274" d="M 428.5 74 L 429.5 76 L 428.5 74 Z " /><path fill="rgb(199,173,233)" stroke="rgb(199,173,233)" stroke-width="1" opacity="0.9098039215686274" d="M 442.5 90 L 443.5 92 L 442.5 90 Z " /><path fill="rgb(199,173,233)" stroke="rgb(199,173,233)" stroke-width="1" opacity="0.9098039215686274" d="M 446.5 95 L 447.5 97 L 446.5 95 Z " /><path fill="rgb(199,173,233)" stroke="rgb(199,173,233)" stroke-width="1" opacity="0.9098039215686274" d="M 467.5 126 L 470 129.5 L 468 128.5 L 467.5 126 Z " /><path fill="rgb(199,173,233)" stroke="rgb(199,173,233)" stroke-width="1" opacity="0.9098039215686274" d="M 471.5 348 L 472.5 350 L 471.5 348 Z " /><path fill="rgb(199,173,233)" stroke="rgb(199,173,233)" stroke-width="1" opacity="0.9098039215686274" d="M 50.5 400 L 162 400.5 L 50.5 401 L 50.5 400 Z " /><path fill="rgb(199,173,233)" stroke="rgb(199,173,233)" stroke-width="1" opacity="0.9098039215686274" d="M 213.5 401 L 214.5 403 L 213.5 401 Z " /><path fill="rgb(199,173,233)" stroke="rgb(199,173,233)" stroke-width="1" opacity="0.9098039215686274" d="M 55.5 407 L 57.5 410 L 55.5 407 Z " /><path fill="rgb(199,173,233)" stroke="rgb(199,173,233)" stroke-width="1" opacity="0.9098039215686274" d="M 60.5 413 L 61.5 415 L 60.5 413 Z " /><path fill="rgb(199,173,233)" stroke="rgb(199,173,233)" stroke-width="1" opacity="0.9098039215686274" d="M 71.5 425 L 72.5 427 L 71.5 425 Z " /><path fill="rgb(199,173,233)" stroke="rgb(199,173,233)" stroke-width="1" opacity="0.9098039215686274" d="M 86.5 439 L 88.5 442 L 86.5 439 Z " /><path fill="rgb(199,173,233)" stroke="rgb(199,173,233)" stroke-width="1" opacity="0.9098039215686274" d="M 97.5 448 L 98.5 450 L 97.5 448 Z " /><path fill="rgb(199,173,233)" stroke="rgb(199,173,233)" stroke-width="1" opacity="0.9098039215686274" d="M 293.5 457 L 296.5 461 L 293.5 457 Z " /><path fill="rgb(199,173,233)" stroke="rgb(199,173,233)" stroke-width="1" opacity="0.9098039215686274" d="M 116.5 461 L 117.5 463 L 116.5 461 Z " /><path fill="rgb(199,173,233)" stroke="rgb(199,173,233)" stroke-width="1" opacity="0.9098039215686274" d="M 119.5 463 L 120.5 465 L 119.5 463 Z " /><path fill="rgb(199,173,233)" stroke="rgb(199,173,233)" stroke-width="1" opacity="0.9098039215686274" d="M 307.5 471 L 312.5 477 L 307.5 471 Z " /><path fill="rgb(199,173,233)" stroke="rgb(199,173,233)" stroke-width="1" opacity="0.9098039215686274" d="M 320.5 483 L 321.5 485 L 320.5 483 Z " /><path fill="rgb(212,188,244)" stroke="rgb(212,188,244)" stroke-width="1" opacity="0.984313725490196" d="M 192.5 36 L 191.5 38 L 192.5 36 Z " /><path fill="rgb(212,188,244)" stroke="rgb(212,188,244)" stroke-width="1" opacity="0.984313725490196" d="M 180.5 49 L 179.5 51 L 180.5 49 Z " /><path fill="rgb(212,188,244)" stroke="rgb(212,188,244)" stroke-width="1" opacity="0.984313725490196" d="M 398.5 49 L 378.5 70 L 398.5 49 Z " /><path fill="rgb(212,188,244)" stroke="rgb(212,188,244)" stroke-width="1" opacity="0.984313725490196" d="M 160.5 71 L 159.5 73 L 160.5 71 Z " /><path fill="rgb(212,188,244)" stroke="rgb(212,188,244)" stroke-width="1" opacity="0.984313725490196" d="M 379.5 73 L 385 83.5 L 384 83.5 L 379.5 73 Z " /><path fill="rgb(212,188,244)" stroke="rgb(212,188,244)" stroke-width="1" opacity="0.984313725490196" d="M 385.5 85 L 388 90.5 L 387 90.5 L 385.5 85 Z " /><path fill="rgb(212,188,244)" stroke="rgb(212,188,244)" stroke-width="1" opacity="0.984313725490196" d="M 388.5 92 L 390 95.5 L 389 95.5 L 388.5 92 Z " /><path fill="rgb(212,188,244)" stroke="rgb(212,188,244)" stroke-width="1" opacity="0.984313725490196" d="M 390.5 97 L 392 100.5 L 391 100.5 L 390.5 97 Z " /><path fill="rgb(212,188,244)" stroke="rgb(212,188,244)" stroke-width="1" opacity="0.984313725490196" d="M 392.5 102 L 394 105.5 L 393 105.5 L 392.5 102 Z " /><path fill="rgb(212,188,244)" stroke="rgb(212,188,244)" stroke-width="1" opacity="0.984313725490196" d="M 394.5 107 L 396 110.5 L 395 110.5 L 394.5 107 Z " /><path fill="rgb(212,188,244)" stroke="rgb(212,188,244)" stroke-width="1" opacity="0.984313725490196" d="M 397.5 115 L 399 118.5 L 398 118.5 L 397.5 115 Z " /><path fill="rgb(212,188,244)" stroke="rgb(212,188,244)" stroke-width="1" opacity="0.984313725490196" d="M 400.5 123 L 402 126.5 L 401 126.5 L 400.5 123 Z " /><path fill="rgb(212,188,244)" stroke="rgb(212,188,244)" stroke-width="1" opacity="0.984313725490196" d="M 402.5 128 L 405 134.5 L 404 134.5 L 402.5 128 Z " /><path fill="rgb(212,188,244)" stroke="rgb(212,188,244)" stroke-width="1" opacity="0.984313725490196" d="M 406.5 139 L 408 142.5 L 407 142.5 L 406.5 139 Z " /><path fill="rgb(212,188,244)" stroke="rgb(212,188,244)" stroke-width="1" opacity="0.984313725490196" d="M 409.5 147 L 411 150.5 L 410 150.5 L 409.5 147 Z " /><path fill="rgb(212,188,244)" stroke="rgb(212,188,244)" stroke-width="1" opacity="0.984313725490196" d="M 413.5 158 L 416 164.5 L 415 164.5 L 413.5 158 Z " /><path fill="rgb(212,188,244)" stroke="rgb(212,188,244)" stroke-width="1" opacity="0.984313725490196" d="M 417.5 169 L 420 175.5 L 419 175.5 L 417.5 169 Z " /><path fill="rgb(212,188,244)" stroke="rgb(212,188,244)" stroke-width="1" opacity="0.984313725490196" d="M 421.5 180 L 424 186.5 L 423 186.5 L 421.5 180 Z " /><path fill="rgb(212,188,244)" stroke="rgb(212,188,244)" stroke-width="1" opacity="0.984313725490196" d="M 428.5 200 L 430 203.5 L 429 203.5 L 428.5 200 Z " /><path fill="rgb(212,188,244)" stroke="rgb(212,188,244)" stroke-width="1" opacity="0.984313725490196" d="M 432.5 211 L 435 217.5 L 434 217.5 L 432.5 211 Z " /><path fill="rgb(212,188,244)" stroke="rgb(212,188,244)" stroke-width="1" opacity="0.984313725490196" d="M 441.5 237 L 443 242.5 L 442 242.5 L 441.5 237 Z " /><path fill="rgb(212,188,244)" stroke="rgb(212,188,244)" stroke-width="1" opacity="0.984313725490196" d="M 445.5 250 L 447 255.5 L 446 255.5 L 445.5 250 Z " /><path fill="rgb(212,188,244)" stroke="rgb(212,188,244)" stroke-width="1" opacity="0.984313725490196" d="M 448.5 260 L 449 262.5 L 448 262.5 L 448.5 260 Z " /><path fill="rgb(212,188,244)" stroke="rgb(212,188,244)" stroke-width="1" opacity="0.984313725490196" d="M 450.5 267 L 452 272.5 L 451 272.5 L 450.5 267 Z " /><path fill="rgb(212,188,244)" stroke="rgb(212,188,244)" stroke-width="1" opacity="0.984313725490196" d="M 452.5 274 L 454 279.5 L 453 279.5 L 452.5 274 Z " /><path fill="rgb(212,188,244)" stroke="rgb(212,188,244)" stroke-width="1" opacity="0.984313725490196" d="M 454.5 281 L 455 283.5 L 454 283.5 L 454.5 281 Z " /><path fill="rgb(212,188,244)" stroke="rgb(212,188,244)" stroke-width="1" opacity="0.984313725490196" d="M 456.5 288 L 457 290.5 L 456 290.5 L 456.5 288 Z " /><path fill="rgb(212,188,244)" stroke="rgb(212,188,244)" stroke-width="1" opacity="0.984313725490196" d="M 457.5 292 L 458 294.5 L 457 294.5 L 457.5 292 Z " /><path fill="rgb(212,188,244)" stroke="rgb(212,188,244)" stroke-width="1" opacity="0.984313725490196" d="M 459.5 299 L 460 301.5 L 459 301.5 L 459.5 299 Z " /><path fill="rgb(212,188,244)" stroke="rgb(212,188,244)" stroke-width="1" opacity="0.984313725490196" d="M 461.5 306 L 463 311.5 L 462 311.5 L 461.5 306 Z " /><path fill="rgb(212,188,244)" stroke="rgb(212,188,244)" stroke-width="1" opacity="0.984313725490196" d="M 463.5 313 L 465 318.5 L 464 318.5 L 463.5 313 Z " /><path fill="rgb(212,188,244)" stroke="rgb(212,188,244)" stroke-width="1" opacity="0.984313725490196" d="M 465.5 320 L 467 325.5 L 466 325.5 L 465.5 320 Z " /><path fill="rgb(212,188,244)" stroke="rgb(212,188,244)" stroke-width="1" opacity="0.984313725490196" d="M 467.5 327 L 468 329.5 L 467 329.5 L 467.5 327 Z " /><path fill="rgb(212,188,244)" stroke="rgb(212,188,244)" stroke-width="1" opacity="0.984313725490196" d="M 468.5 331 L 469 333.5 L 468 333.5 L 468.5 331 Z " /><path fill="rgb(212,188,244)" stroke="rgb(212,188,244)" stroke-width="1" opacity="0.984313725490196" d="M 469.5 335 L 470 338.5 L 469 338.5 L 469.5 335 Z " /><path fill="rgb(212,188,244)" stroke="rgb(212,188,244)" stroke-width="1" opacity="0.984313725490196" d="M 470.5 340 L 471 342.5 L 470 342.5 L 470.5 340 Z " /><path fill="rgb(212,188,244)" stroke="rgb(212,188,244)" stroke-width="1" opacity="0.984313725490196" d="M 471.5 344 L 472 347.5 L 471 347.5 L 471.5 344 Z " /><path fill="rgb(212,188,244)" stroke="rgb(212,188,244)" stroke-width="1" opacity="0.984313725490196" d="M 472.5 350 L 473 353.5 L 472 353.5 L 472.5 350 Z " /><path fill="rgb(212,188,244)" stroke="rgb(212,188,244)" stroke-width="1" opacity="0.984313725490196" d="M 473.5 356 L 474 359.5 L 473 359.5 L 473.5 356 Z " /><path fill="rgb(212,188,244)" stroke="rgb(212,188,244)" stroke-width="1" opacity="0.984313725490196" d="M 162.5 400 L 202 400.5 L 162.5 401 L 162.5 400 Z " /><path fill="rgb(212,188,244)" stroke="rgb(212,188,244)" stroke-width="1" opacity="0.984313725490196" d="M 206.5 401 L 213 401.5 L 206.5 402 L 206.5 401 Z " /><path fill="rgb(212,188,244)" stroke="rgb(212,188,244)" stroke-width="1" opacity="0.984313725490196" d="M 215.5 402 L 218 402.5 L 215.5 403 L 215.5 402 Z " /><path fill="rgb(212,188,244)" stroke="rgb(212,188,244)" stroke-width="1" opacity="0.984313725490196" d="M 219.5 403 L 230 406.5 L 228.5 407 L 219.5 404 L 219.5 403 Z " /><path fill="rgb(212,188,244)" stroke="rgb(212,188,244)" stroke-width="1" opacity="0.984313725490196" d="M 231.5 407 L 247.5 416 L 288 450 Q 286.9 452.7 289.5 452 L 325 488.5 L 313 477.5 L 293.5 457 L 290.5 455 L 262.5 429 L 244.5 415 L 231.5 408 L 231.5 407 Z " /></svg>